<svg width="188" height="16" fill="none" xmlns="http://www.w3.org/2000/svg"><path d="M8.5 1l2.059 4.953L16 6.35l-4.17 3.457L13.134 15 8.5 12.18 3.865 15l1.306-5.194L1 6.349l5.441-.396L8.5 1zm19 0l2.059 4.953L35 6.35l-4.17 3.457L32.135 15 27.5 12.18 22.865 15l1.306-5.194L20 6.349l5.441-.396L27.5 1zm19 0l2.059 4.953L54 6.35l-4.17 3.457L51.135 15 46.5 12.18 41.865 15l1.306-5.194L39 6.349l5.441-.396L46.5 1zm19 0l2.059 4.953L73 6.35l-4.17 3.457L70.135 15 65.5 12.18 60.865 15l1.306-5.194L58 6.349l5.441-.396L65.5 1zm19 0l2.059 4.953L92 6.35l-4.17 3.457L89.135 15 84.5 12.18 79.865 15l1.306-5.194L77 6.349l5.441-.396L84.5 1z" fill="#210EF4" stroke="#210EF4" stroke-width="1.2" stroke-linecap="round" stroke-linejoin="round"/><path d="M103.5 1l2.059 4.953L111 6.35l-4.17 3.457L108.135 15l-4.635-2.82L98.865 15l1.306-5.194L96 6.349l5.441-.396L103.5 1zm19 0l2.059 4.953L130 6.35l-4.17 3.457L127.135 15l-4.635-2.82-4.635 2.82 1.306-5.194L115 6.349l5.441-.396L122.5 1zm19 0l2.059 4.953L149 6.35l-4.17 3.457L146.135 15l-4.635-2.82-4.635 2.82 1.306-5.194L134 6.349l5.441-.396L141.5 1zm19 0l2.059 4.953L168 6.35l-4.17 3.457L165.135 15l-4.635-2.82-4.635 2.82 1.306-5.194L153 6.349l5.441-.396L160.5 1zm19 0l2.059 4.953L187 6.35l-4.17 3.457L184.135 15l-4.635-2.82-4.635 2.82 1.306-5.194L172 6.349l5.441-.396L179.5 1z" stroke="#210EF4" stroke-width="1.2" stroke-linecap="round" stroke-linejoin="round"/></svg>